<svg width="19" height="26" viewBox="0 0 19 26" xmlns="http://www.w3.org/2000/svg">
<path d="M25.242 14.1463H10.2129C10.1632 13.7739 9.84623 13.4864 9.46162 13.4864H5.35562C4.971 13.4864 4.65402 13.7739 4.60431 14.1463H3.08504V2.87847C3.08504 2.13128 3.69061 1.52343 4.43501 1.52343C5.01244 1.52343 5.52588 1.89195 5.7122 2.43957L5.98621 3.24836C4.64554 4.01378 3.94842 5.62989 4.39829 7.17968L4.62371 7.95643C4.72943 8.35094 5.17544 8.59708 5.56458 8.4747L10.6538 6.9863C10.847 6.92978 11.0099 6.79852 11.1068 6.62139C11.2036 6.44432 11.2264 6.23581 11.17 6.04188L10.9446 5.26513C10.4888 3.69493 9.00327 2.70191 7.44033 2.8087L7.1488 1.94816C6.7523 0.782891 5.66172 0 4.43501 0C2.85373 0 1.5673 1.29126 1.5673 2.87847V14.1463H0.759879C0.340783 14.1463 0.00100708 14.4873 0.00100708 14.908V17.4233C0.00100708 17.773 0.235616 18.0675 0.555485 18.1571V20.3512C0.555485 22.1235 1.67485 23.6381 3.24114 24.2208L2.84815 24.8188C2.6173 25.1699 2.71388 25.6424 3.06371 25.8741C3.19244 25.9593 3.33742 26 3.48088 26C3.72737 26 3.96914 25.8796 4.11498 25.6576L4.89127 24.4765H21.1106L21.8869 25.6576C22.0328 25.8796 22.2746 26 22.521 26C22.6644 26 22.8096 25.9592 22.9382 25.8741C23.288 25.6424 23.3846 25.1699 23.1538 24.8188L22.7608 24.2208C24.3271 23.6381 25.4464 22.1235 25.4464 20.3512V18.1571C25.7663 18.0675 26.0009 17.773 26.0009 17.4233V14.908C26.0009 14.4873 25.6611 14.1463 25.242 14.1463ZM9.48742 5.69129L9.50062 5.73674L5.86866 6.79897L5.85545 6.75352C5.56367 5.74841 6.14099 4.69247 7.14235 4.39962C7.3183 4.34813 7.49588 4.3236 7.67062 4.3236C8.48997 4.3236 9.24697 4.86284 9.48742 5.69129ZM6.11449 15.0099H8.70275V19.9339H6.11449V15.0099ZM24.4832 16.9045C24.1479 17.1436 23.9287 17.5365 23.9287 17.9799V20.3512C23.9287 21.7859 22.7658 22.9531 21.3366 22.9531H4.66535C3.23606 22.9531 2.07323 21.7859 2.07323 20.3512V17.9799C2.07323 17.5366 1.85406 17.1436 1.51875 16.9045V15.6697H4.59679V20.6956C4.59679 21.1163 4.93657 21.4573 5.35567 21.4573H9.46167C9.88076 21.4573 10.2205 21.1163 10.2205 20.6956V15.6697H24.4832V16.9045H24.4832Z"/>
</svg>
