<svg width="30" height="33" viewBox="0 0 30 33" xmlns="http://www.w3.org/2000/svg">
<path d="M14 32.6667C15.8333 32.6667 17.3333 31.1667 17.3333 29.3333H10.6667C10.6667 31.1667 12.1667 32.6667 14 32.6667ZM14 6.83334C18.15 6.83334 20.6667 10.2 20.6667 14.3333V14.5L24 17.8333V14.3333C24 9.21667 21.2833 4.93334 16.5 3.8V2.66667C16.5 1.28334 15.3833 0.166672 14 0.166672C12.6167 0.166672 11.5 1.28334 11.5 2.66667V3.8C11.1 3.9 10.7167 4.05 10.35 4.18334L13.0833 6.91667C13.3833 6.88334 13.6833 6.83334 14 6.83334V6.83334ZM3.01667 1.58334L0.666672 3.93334L5.35 8.61667C4.48334 10.2833 4 12.2333 4 14.3333V22.6667L0.666672 26V27.6667H24.4L27.3 30.5667L29.65 28.2167L3.01667 1.58334ZM20.6667 24.3333H7.33334V14.3333C7.33334 13.2 7.53334 12.1333 7.9 11.1667L20.6667 23.9333V24.3333Z"/>
</svg>
