<svg width="15" height="20" viewBox="0 0 15 20" xmlns="http://www.w3.org/2000/svg">
<path d="M10.3333 20H4.33334V18H10.3333V20ZM10.3333 17H4.33334L4.11034 15C3.99038 14.3385 3.79198 13.6936 3.51934 13.079C3.16534 12.579 2.79634 12.152 2.43934 11.735C1.12746 10.5053 0.367995 8.79777 0.333344 7C0.333344 3.13401 3.46735 0 7.33334 0C11.1993 0 14.3333 3.13401 14.3333 7C14.2927 8.7868 13.539 10.4831 12.2403 11.711L12.2233 11.731C11.8673 12.148 11.4993 12.58 11.1523 13.075C10.88 13.6912 10.6809 14.3373 10.5593 15L10.3333 17ZM7.33334 2C4.57329 2.00331 2.33665 4.23995 2.33334 7C2.33334 8.544 2.97734 9.293 3.95134 10.428C4.32134 10.86 4.74134 11.348 5.15134 11.919C5.64891 12.8858 5.98886 13.9259 6.15834 15H8.50934C8.6832 13.929 9.02259 12.8916 9.51534 11.925C9.91534 11.354 10.3343 10.863 10.7033 10.431L10.7183 10.413C11.6903 9.273 12.3333 8.52 12.3333 7C12.33 4.23995 10.0934 2.00331 7.33334 2Z"/>
</svg>
