<svg width="18" height="21" viewBox="0 0 18 21" xmlns="http://www.w3.org/2000/svg">
<path d="M5.51327 12.0031C5.51327 11.5467 5.13655 11.1766 4.67184 11.1766C4.20713 11.1766 3.83041 11.5467 3.83041 12.0031C3.83041 14.6636 5.88999 16.6866 8.59852 16.6866C9.06323 16.6866 9.43995 16.3166 9.43995 15.8601C9.43995 15.4037 9.06323 15.0336 8.59852 15.0336C6.81941 15.0336 5.51327 13.7507 5.51327 12.0031Z" fill="black" fill-opacity="0.6"/>
<path fill-rule="evenodd" clip-rule="evenodd" d="M15.364 18.4107C18.8787 14.9584 18.8787 9.36103 15.364 5.90868L9.59498 0.242076C9.26638 -0.0806918 8.73362 -0.0806922 8.40502 0.242076L2.63604 5.90868C-0.878679 9.36103 -0.87868 14.9584 2.63604 18.4107C6.15076 21.8631 11.8492 21.8631 15.364 18.4107ZM14.174 7.07753C17.0315 9.88434 17.0315 14.4351 14.174 17.2419C11.3165 20.0487 6.68352 20.0487 3.826 17.2419C0.968482 14.4351 0.968483 9.88434 3.826 7.07753L9 1.99535L14.174 7.07753Z"/>
</svg>
