<svg width="37" height="37" viewBox="0 0 37 37" xmlns="http://www.w3.org/2000/svg">
<path d="M34.35 8.13334L33.4 5.68334L31.7333 7.71667C31.7333 7.71667 28.0167 12.25 23.1833 12.95C22.4833 13.05 21.7667 13.1667 21 13.3333C20.9643 11.3011 20.516 9.29732 19.6823 7.44364C18.8486 5.58995 17.6468 3.92505 16.15 2.55001L14.3167 0.666672L13.6833 3.18334C12.9911 5.41114 11.593 7.3533 9.7 8.71667C6.87754 10.2395 4.6388 12.654 3.33333 15.5833C2.82676 16.8008 2.56597 18.1064 2.56597 19.425C2.56597 20.7436 2.82676 22.0492 3.33333 23.2667C4.03179 24.9448 5.35138 26.2882 7.01667 27.0167L7.21667 27.1C7.18302 27.966 7.25013 28.8329 7.41667 29.6833C7.01667 29.6833 6.61667 29.6833 6.23333 29.6833C4.82347 29.7116 3.41778 29.5204 2.06667 29.1167L1.68333 29L0.633333 31.85L1.05 31.9833C2.73278 32.5067 4.48792 32.7598 6.25 32.7333C7.01667 32.7333 7.8 32.7333 8.58333 32.6C8.93747 33.2042 9.36273 33.7637 9.85 34.2667C11.6086 35.897 13.9186 36.802 16.3167 36.8H16.7333C20.5425 36.7078 24.2199 35.3866 27.2167 33.0333L27.55 32.7833C30.6667 30.3333 40.05 22.9833 34.35 8.13334ZM7.8 24.0167C7.0344 23.5575 6.44692 22.8525 6.13333 22.0167C5.7943 21.16 5.62857 20.2445 5.64573 19.3233C5.6629 18.4021 5.86262 17.4935 6.23333 16.65C7.28765 14.3578 9.06852 12.4774 11.3 11.3C13.1177 10.0891 14.5792 8.41473 15.5333 6.45C17.2711 8.63538 18.1114 11.4006 17.8833 14.1833C15.4668 14.964 13.2607 16.2866 11.4333 18.05C9.74866 19.7088 8.50048 21.7586 7.8 24.0167V24.0167ZM27.15 22.35L27.4333 22.0333L25.2167 19.9667L24.9333 20.2833C21.1514 24.71 16.1017 27.869 10.4667 29.3333C10.2703 28.4471 10.2308 27.5332 10.35 26.6333C10.6876 24.1871 11.8312 21.9232 13.6 20.2C16.3826 17.7338 19.8933 16.2418 23.6 15.95C26.8438 15.3278 29.8438 13.796 32.25 11.5333C32.8145 13.386 33.0955 15.3133 33.0833 17.25C33.0781 17.8916 33.028 18.5321 32.9333 19.1667C32.4964 22.185 31.1606 25.0017 29.1 27.25C28.0883 28.3803 26.9723 29.4127 25.7667 30.3333L25.35 30.5833C21.0167 34.0167 14.65 34.7 12.0167 32.0333C17.8989 30.2996 23.1544 26.9021 27.15 22.25V22.35Z" />
</svg>
