<svg width="28" height="22" viewBox="0 0 28 22" xmlns="http://www.w3.org/2000/svg">
<path fill-rule="evenodd" clip-rule="evenodd" d="M10.1667 3.61731V2.66667C10.1667 1.28596 11.286 0.166672 12.6667 0.166672H15.3333C16.714 0.166672 17.8333 1.28596 17.8333 2.66667V3.61731H19.2496C21.9034 3.61731 23.3273 5.07377 23.5536 7.11724H25.3745C26.0579 7.11724 26.7087 7.38028 27.2069 7.85791C28.2645 8.8718 28.2642 10.5035 27.2069 11.5171C26.7086 11.9947 26.0579 12.2578 25.3745 12.2578H23.5699V19.4217C23.5699 20.7786 22.4659 21.8826 21.109 21.8826H6.8905C5.53356 21.8826 4.42961 20.7786 4.42961 19.4217V12.2578H2.62495C1.20032 12.2578 5.72205e-06 11.1049 5.72205e-06 9.6875C5.72205e-06 8.26834 1.2019 7.11724 2.62495 7.11724H4.4459C4.67176 5.07738 6.09557 3.61731 8.74983 3.61731H10.1667ZM16.3333 3.61734V2.66667C16.3333 2.60989 16.3286 2.55421 16.3195 2.5C16.2402 2.02705 15.8288 1.66667 15.3333 1.66667H12.6667C12.1712 1.66667 11.7598 2.02705 11.6805 2.5C11.6714 2.55421 11.6667 2.60989 11.6667 2.66667V3.61732C11.9725 3.61732 12.3128 3.61734 12.6718 3.61735C13.8814 3.61741 15.3032 3.61747 16.3333 3.61734ZM19.2496 5.2579H8.74983C7.016 5.2579 6.28441 6.01881 6.09814 7.11724H21.9C21.6684 5.75128 20.6524 5.2579 19.2496 5.2579ZM1.6406 9.6875C1.6406 10.1827 2.10057 10.6172 2.62495 10.6172H4.42961V8.75783H2.62495C2.10057 8.75783 1.6406 9.19226 1.6406 9.6875ZM21.109 20.242C21.5613 20.242 21.9293 19.874 21.9293 19.4217V8.75783H6.0702V19.4217C6.0702 19.874 6.43818 20.242 6.8905 20.242H21.109ZM23.5699 10.6172H25.3745C25.8989 10.6172 26.3589 10.1827 26.3589 9.6875C26.3589 9.19226 25.8989 8.75783 25.3745 8.75783H23.5699V10.6172Z"/>
</svg>
