<svg width="20" height="16" viewBox="0 0 20 16" xmlns="http://www.w3.org/2000/svg">
<path d="M6 16C4.17526 16.0009 2.58119 14.7668 2.125 13H0V11H2.126C2.64564 8.98744 4.62012 7.70825 6.66928 8.05656C8.71845 8.40487 10.1594 10.2646 9.98486 12.3358C9.81035 14.407 8.07856 15.9995 6 16ZM6 10C4.9074 10.0011 4.01789 10.8788 4.00223 11.9713C3.98658 13.0638 4.85057 13.9667 5.94269 13.9991C7.03481 14.0315 7.95083 13.1815 8 12.09V12.49V12C8 10.8954 7.10457 10 6 10ZM20 13H11V11H20V13ZM11 8C9.17563 8.00046 7.58209 6.76644 7.126 5H0V3H7.126C7.64564 0.987443 9.62012 -0.291754 11.6693 0.0565595C13.7184 0.404872 15.1594 2.26461 14.9849 4.33583C14.8103 6.40705 13.0786 7.99947 11 8ZM11 2C9.9074 2.0011 9.01789 2.87884 9.00223 3.97134C8.98658 5.06383 9.85056 5.9667 10.9427 5.99912C12.0348 6.03153 12.9508 5.18149 13 4.09V4.49V4C13 2.89543 12.1046 2 11 2ZM20 5H16V3H20V5Z"/>
</svg>
