<svg width="34" height="34" viewBox="0 0 34 34" xmlns="http://www.w3.org/2000/svg">
<path d="M33.6667 15.3333H26.7167L32.1167 9.93333L29.7667 7.56666L22 15.3333H18.6667V12L26.4333 4.23333L24.0667 1.88333L18.6667 7.28333V0.333328H15.3333V7.28333L9.93334 1.88333L7.56667 4.23333L15.3333 12V15.3333H12L4.23334 7.56666L1.88334 9.93333L7.28334 15.3333H0.333336V18.6667H7.28334L1.88334 24.0667L4.23334 26.4333L12 18.6667H15.3333V22L7.56667 29.7667L9.93334 32.1167L15.3333 26.7167V33.6667H18.6667V26.7167L24.0667 32.1167L26.4333 29.7667L18.6667 22V18.6667H22L29.7667 26.4333L32.1167 24.0667L26.7167 18.6667H33.6667V15.3333Z"/>
</svg>
