<svg width="26" height="23" viewBox="0 0 26 23" xmlns="http://www.w3.org/2000/svg">
<path fill-rule="evenodd" clip-rule="evenodd" d="M22.3333 7.72198V3.00001C22.3333 1.52725 21.1394 0.333344 19.6667 0.333344H6.33333C4.86057 0.333344 3.66666 1.52725 3.66666 3.00001V7.72198C1.77485 8.03936 0.333328 9.68467 0.333328 11.6667V17C0.333328 18.982 1.77485 20.6273 3.66666 20.9447V22.3333C3.66666 22.7015 3.96514 23 4.33333 23H7C7.36819 23 7.66666 22.7015 7.66666 22.3333V21H18.3333V22.3333C18.3333 22.7015 18.6318 23 19 23H21.6667C22.0349 23 22.3333 22.7015 22.3333 22.3333V20.9447C24.2251 20.6273 25.6667 18.982 25.6667 17V11.6667C25.6667 9.68468 24.2251 8.03936 22.3333 7.72198ZM19.6667 2.33334H6.33333C5.96514 2.33334 5.66666 2.63182 5.66666 3.00001V7.89428C7.22025 8.4434 8.33333 9.92505 8.33333 11.6667V13.3559C9.68464 13.1517 11.2701 13 13 13C14.7299 13 16.3154 13.1517 17.6667 13.3559V11.6667C17.6667 9.92505 18.7797 8.44339 20.3333 7.89428V3.00001C20.3333 2.63182 20.0349 2.33334 19.6667 2.33334ZM23.6667 11.6667C23.6667 10.5621 22.7712 9.66667 21.6667 9.66667C20.5621 9.66667 19.6667 10.5621 19.6667 11.6667V15.7735C19.0989 15.6409 18.4255 15.5026 17.6667 15.3801C16.3372 15.1656 14.7455 15 13 15C11.2545 15 9.6628 15.1656 8.33333 15.3801C7.57452 15.5026 6.90113 15.6409 6.33333 15.7735V11.6667C6.33333 10.5621 5.4379 9.66667 4.33333 9.66667C3.22876 9.66667 2.33333 10.5621 2.33333 11.6667V17C2.33333 18.1038 3.22745 18.9987 4.33091 19L7 19L7.00279 19H18.9972L19 19L21.6667 19C22.7712 19 23.6667 18.1046 23.6667 17V11.6667Z"/>
</svg>
