<svg width="10" height="22" viewBox="0 0 10 22" xmlns="http://www.w3.org/2000/svg">
<path fill-rule="evenodd" clip-rule="evenodd" d="M2 3C2 1.34315 3.34315 0 5 0C6.65685 0 8 1.34315 8 3V12.9996C9.21445 13.9118 10 15.3642 10 17C10 19.7614 7.76142 22 5 22C2.23858 22 0 19.7614 0 17C0 15.3642 0.785553 13.9118 2 12.9996V3ZM4 13.9987L3.20116 14.5988C2.46798 15.1495 2 16.0198 2 17H8C8 16.0198 7.53202 15.1495 6.79885 14.5988L6 13.9987V12H4V13.9987ZM6 9V11H4V9H6ZM6 8V6H4V8H6ZM6 3V5H4V3C4 2.44772 4.44772 2 5 2C5.55228 2 6 2.44772 6 3Z"/>
</svg>
