<svg width="20" height="24" viewBox="0 0 20 24" xmlns="http://www.w3.org/2000/svg">
<path d="M19.1474 13.3771L15.304 0.502075C15.215 0.204163 14.9411 0 14.6302 0H5.45278C5.14187 0 4.86794 0.204163 4.77895 0.502075L0.93557 13.3771C0.872216 13.5899 0.912865 13.8203 1.04562 13.9984C1.17837 14.1764 1.38729 14.2815 1.6094 14.2815H8.33193V20.5809H5.5696C5.18124 20.5809 4.86648 20.8958 4.86648 21.284V23.2969C4.86648 23.6852 5.18124 24 5.5696 24H14.5134C14.9016 24 15.2165 23.6852 15.2165 23.2969V21.284C15.2165 20.8958 14.9016 20.5809 14.5134 20.5809H11.7511V14.2813H13.8137V17.826C13.5003 17.8969 13.2659 18.1767 13.2659 18.5114C13.2659 18.8998 13.5808 19.2145 13.969 19.2145H15.0647C15.4531 19.2145 15.7678 18.8998 15.7678 18.5114C15.7678 18.1767 15.5335 17.8969 15.22 17.826V14.2813H18.4736C18.6955 14.2813 18.9046 14.1764 19.0374 13.9984C19.1699 13.8203 19.2108 13.5899 19.1474 13.3771ZM2.55312 12.8751L5.97665 1.40625H14.1063L17.5299 12.8751H2.55312ZM13.8103 22.5938H6.27273V21.9871H13.8103V22.5938ZM9.73818 20.5809V14.2813H10.3448V20.5809H9.73818Z"/>
</svg>
